<svg width="462" height="432" viewBox="0 0 462 432" fill="none" xmlns="http://www.w3.org/2000/svg">
<mask id="mask0_54_1211" style="mask-type:luminance" maskUnits="userSpaceOnUse" x="-3" y="0" width="465" height="453">
<path d="M461.827 0.0362549H-2.87927V452.294H461.827V0.0362549Z" fill="white"/>
</mask>
<g mask="url(#mask0_54_1211)">
<path d="M-9.77262 156.266C-39.99 191.445 -56.1489 238.375 -53.9955 284.698L17.9339 290.31C24.3068 259.76 30.7655 227.504 37.137 196.953C20.6435 184.818 4.66902 170.784 -9.77262 156.266Z" fill="#D87172"/>
<path d="M249.127 197.448C229.195 207.342 208.851 216.842 188.917 226.754C183.934 253.301 179.31 280.35 174.327 306.895L17.718 278.737C19.0449 257.442 20.3346 235.448 21.643 214.136C4.65044 198.057 -12.0204 182.14 -29.03 166.044C-2.82346 139.049 31.8794 120.73 68.8214 113.596C79.0392 111.624 89.2556 109.653 99.4905 107.681C103.882 106.839 108.291 105.996 112.684 105.136C117.129 111.177 123.188 115.73 130.59 116.931C137.993 118.132 145.827 116.339 151.957 112.019C156.868 114.762 161.708 117.414 166.566 120.068C172.445 123.294 178.342 126.502 184.312 129.837C212.22 145.412 237.152 167.818 249.127 197.448Z" fill="white"/>
<path d="M166.565 120.066C162.299 124.171 157.317 127.559 151.885 129.961C140.969 134.818 127.938 135.589 117.165 130.463C108.131 126.16 101.122 117.414 99.4919 107.681C103.883 106.839 108.293 105.996 112.685 105.136C117.131 111.177 123.189 115.73 130.592 116.931C137.994 118.132 145.828 116.339 151.958 112.019C156.868 114.76 161.708 117.414 166.565 120.066Z" fill="#D8DBFF"/>
<path d="M21.2626 215.753C21.866 206.577 22.4694 197.402 23.0742 188.228" stroke="#060305" stroke-miterlimit="10" stroke-linecap="round" stroke-linejoin="round"/>
<path d="M-22.2439 160.289C-7.54774 174.275 7.14841 188.262 21.8446 202.249" stroke="#060305" stroke-miterlimit="10" stroke-linecap="round" stroke-linejoin="round"/>
<path d="M187.556 130.071C183.986 147.028 181.129 163.428 177.558 180.385C139.284 175.531 100.599 170.965 62.3241 166.111C63.9098 147.861 65.5856 129.938 67.1699 111.687C62.7416 112.953 58.2404 113.845 53.8121 115.11C50.0616 164.468 46.311 213.825 42.5591 263.183L178.093 284.654C184.965 235.085 192.942 185.075 199.814 135.506C195.793 133.534 191.577 132.046 187.556 130.071Z" fill="#8DC63F"/>
<path d="M63.3522 158.347C59.0354 157.775 54.7187 157.201 50.4005 156.629C50.0959 159.649 52.7483 163.348 55.7353 163.892C58.7223 164.434 62.5758 161.281 63.3522 158.347Z" stroke="#060305" stroke-miterlimit="10" stroke-linecap="round" stroke-linejoin="round"/>
<path d="M194.02 174.912C188.857 173.944 183.695 172.974 178.532 172.005C178.186 175.711 181.755 179.842 185.411 180.532C189.069 181.222 192.992 178.488 194.02 174.912Z" stroke="#060305" stroke-miterlimit="10" stroke-linecap="round" stroke-linejoin="round"/>
<path d="M182.341 47.6579C180.614 43.8845 176.936 42.2187 172.82 42.7377C173.387 35.8773 167.312 30.215 161.029 27.4039C152.128 23.4202 141.739 22.8812 132.473 25.9197C123.208 28.9581 115.757 35.6599 110.944 44.1404C102.848 46.2495 96.1561 53.0456 94.1729 61.173C92.1897 69.3003 94.9994 78.4157 101.215 84.0151L167.728 79.5739C172.838 79.5239 178.113 77.3247 180.95 73.0737C183.787 68.8228 183.811 62.4399 179.986 59.0511C183.068 56.2743 184.07 51.4327 182.341 47.6579Z" fill="#060305"/>
<path d="M106.164 41.3293C108.064 42.5633 109.964 43.7959 111.866 45.0298C110.182 43.151 109.437 40.4686 109.913 37.9906" stroke="#060305" stroke-miterlimit="10" stroke-linecap="round" stroke-linejoin="round"/>
<path d="M111.516 44.9655C115.442 34.7534 124.715 26.4416 135.851 23.1514C146.986 19.8613 159.731 21.6687 169.299 27.8943" stroke="#060305" stroke-miterlimit="10" stroke-linecap="round" stroke-linejoin="round"/>
<path d="M152.99 115.496C153.6 111.275 154.652 107.379 155.261 103.158C161.68 100.135 166.856 94.5675 169.407 87.9472C171.958 81.327 170.757 74.0947 169.638 67.0884C168.782 61.7192 166.408 57.3824 162.734 53.3745C161.735 55.914 158.295 56.4788 155.661 55.7624C153.029 55.046 150.634 53.4718 147.923 53.1643C145.266 52.8626 142.634 53.8178 140.193 54.9088C137.751 55.9998 135.326 57.2595 132.676 57.6284C130.027 57.9958 126.115 57.83 124.58 55.6394C122.586 60.9271 120.591 66.2147 118.596 71.5038C116.831 69.3275 114.799 67.7347 113.033 65.5584C107.578 65.3211 102.1 68.3009 99.3362 73.0094C96.5722 77.7194 96.6409 83.9536 99.5078 88.6007C102.375 93.2478 107.915 96.1075 113.365 95.75C112.334 99.7622 111.044 103.916 110.013 107.93C113.113 115.296 120.268 121.197 128.069 122.936C135.869 124.67 147.055 120.848 152.99 115.496Z" fill="#D87172"/>
<path d="M104.477 75.0485C107.645 76.088 110.812 77.1275 113.981 78.1684" stroke="#060305" stroke-miterlimit="10" stroke-linecap="round" stroke-linejoin="round"/>
<path d="M112.672 95.7458C114.048 95.2324 115.424 94.7191 116.8 94.2058" stroke="#060305" stroke-miterlimit="10" stroke-linecap="round" stroke-linejoin="round"/>
<path d="M124.562 101.518C133.819 107.601 146.38 108.254 156.218 103.164" stroke="#060305" stroke-miterlimit="10" stroke-linecap="round" stroke-linejoin="round"/>
<path d="M139.189 73.2811C140.18 73.2811 140.982 72.4783 140.982 71.4881C140.982 70.4978 140.18 69.695 139.189 69.695C138.199 69.695 137.396 70.4978 137.396 71.4881C137.396 72.4783 138.199 73.2811 139.189 73.2811Z" fill="#060305"/>
<path d="M162.921 69.1073C163.911 69.1073 164.714 68.3045 164.714 67.3142C164.714 66.324 163.911 65.5212 162.921 65.5212C161.931 65.5212 161.128 66.324 161.128 67.3142C161.128 68.3045 161.931 69.1073 162.921 69.1073Z" fill="#060305"/>
<path d="M131.75 64.769C132.738 62.2782 134.915 60.2893 137.486 59.5286C140.057 58.7693 142.966 59.254 145.15 60.8083" stroke="#060305" stroke-width="0.9007" stroke-miterlimit="10" stroke-linecap="round" stroke-linejoin="round"/>
<path d="M157.809 59.7818C160.021 59.0382 162.235 58.2947 164.447 57.5511" stroke="#060305" stroke-miterlimit="10" stroke-linecap="round" stroke-linejoin="round"/>
<path d="M152.244 68.3423C153.814 71.2936 155.384 74.2434 156.954 77.1946C155.225 77.5364 153.497 77.8767 151.768 78.2184" stroke="#060305" stroke-miterlimit="10" stroke-linecap="round" stroke-linejoin="round"/>
<path d="M145.075 79.8341C144.408 81.2239 145.069 83.0956 146.46 83.7591C147.853 84.4211 149.722 83.7548 150.381 82.3607" stroke="#060305" stroke-width="0.8279" stroke-miterlimit="10" stroke-linecap="round" stroke-linejoin="round"/>
</g>
<mask id="mask1_54_1211" style="mask-type:luminance" maskUnits="userSpaceOnUse" x="-3" y="0" width="465" height="453">
<path d="M461.827 0.0362549H-2.87927V452.294H461.827V0.0362549Z" fill="white"/>
</mask>
<g mask="url(#mask1_54_1211)">
<path d="M226.498 156.276C232.837 145.491 242.913 136.786 254.73 131.884C266.546 126.983 280.037 125.913 292.527 128.887" stroke="#060305" stroke-width="0.9815" stroke-miterlimit="10" stroke-linecap="round" stroke-linejoin="round"/>
<path d="M298.764 182.604C305.042 181.699 311.702 184.09 315.972 188.781" stroke="#060305" stroke-miterlimit="10" stroke-linecap="round" stroke-linejoin="round"/>
<path d="M312.62 189.373C306.177 182.694 295.641 180.337 286.966 183.634C288.587 174.936 289.947 166.234 291.567 157.536C297.294 157.307 301.602 151.143 301 145.444C300.398 139.744 295.904 134.998 290.639 132.733C285.374 130.469 279.446 130.313 273.731 130.746C258.407 131.91 243.03 137.372 232.02 148.096C221.012 158.819 215.046 175.219 218.893 190.098C219.669 193.104 220.822 196.021 221.309 199.086C221.797 202.152 221.542 205.504 219.728 208.023C216.729 212.19 210.823 212.666 206.246 214.989C200.558 217.878 196.79 224.192 196.949 230.571C197.107 236.948 201.187 243.068 207.012 245.669L317.435 215.218C321.041 206.666 319.063 196.052 312.62 189.373Z" fill="#060305"/>
<path d="M356.443 357.681C354.184 343.275 352.352 328.764 350.093 314.358C360.202 304.174 367.03 290.551 368.101 276.24C369.172 261.932 364.216 247.073 354.035 236.961C345.959 228.939 335.494 222.967 324.593 219.692C317.193 217.47 310.533 216.419 302.807 216.323C294.995 228.33 281.854 236.725 267.676 238.768C253.497 240.811 238.817 235.981 227.931 226.668C213.915 233.153 199.9 239.637 185.884 246.12C171.028 252.994 158.909 264.75 149.594 278.211C140.28 291.672 133.493 306.688 126.891 321.666C106.949 366.91 101.002 417.32 97.1169 466.61L431.578 476.612C424.894 428.573 396.808 384.571 356.443 357.681Z" fill="#F58220"/>
<path d="M179.775 250.766C184.159 276.605 185.353 302.985 183.324 329.114" stroke="#060305" stroke-miterlimit="10" stroke-linecap="round" stroke-linejoin="round"/>
<path d="M356.051 358.133C311.604 366.948 267.156 375.763 222.709 384.58" stroke="#060305" stroke-miterlimit="10" stroke-linecap="round" stroke-linejoin="round"/>
<path d="M298.917 327.563C304.071 332.205 311.695 333.927 318.344 331.952C324.995 329.976 330.441 324.371 332.224 317.666" stroke="#060305" stroke-miterlimit="10" stroke-linecap="round" stroke-linejoin="round"/>
<path d="M220.117 339.895C224.824 345.364 232.259 348.361 239.444 347.687C246.629 347.012 253.375 342.682 256.982 336.432" stroke="#060305" stroke-miterlimit="10" stroke-linecap="round" stroke-linejoin="round"/>
<path d="M282.753 213.033L246.569 216.256C237.916 220.203 229.262 224.15 220.609 228.097C234.56 250.117 249.335 271.855 263.286 293.875C266.236 286.221 269.26 279.152 272.211 271.498C277.537 277.936 283.62 284.185 288.946 290.623C294.674 265.186 300.129 239.717 305.857 214.28C298.318 213.554 290.292 213.758 282.753 213.033Z" fill="white"/>
<path d="M225.339 228.021C238.353 247.793 251.369 267.565 264.384 287.336" stroke="#060305" stroke-miterlimit="10" stroke-linecap="round" stroke-linejoin="round"/>
<path d="M285.61 282.272C289.731 265.102 293.852 247.932 297.974 230.762" stroke="#060305" stroke-miterlimit="10" stroke-linecap="round" stroke-linejoin="round"/>
<path d="M285.273 206.845C290.05 203.759 293.703 198.969 295.416 193.546C297.129 188.122 297.151 181.997 294.897 176.773C292.119 170.33 289.062 164.485 286.284 158.042C283.73 159.561 280.622 160.124 277.698 159.598C274.773 159.072 272.042 157.048 270.176 154.736C267.587 159.343 261.852 161.94 256.683 160.846C253.519 160.177 250.131 158.317 247.291 159.864C245.278 160.96 244.443 163.367 243.775 165.559C241.838 171.92 239.936 178.292 237.999 184.655C236.944 184.203 235.918 184.37 234.863 183.918C229.746 184.818 225.309 188.834 223.907 193.836C222.506 198.839 224.209 204.576 228.114 208.003C232.019 211.43 237.929 212.374 242.707 210.335C242.429 213.728 242.644 216.762 242.367 220.155C238.757 222.353 235.16 224.459 231.552 226.658C244.977 241.117 258.813 255.562 272.238 270.02L295.89 213.807C293.247 213.658 289.887 213.01 287.245 212.863C286.646 210.773 285.872 208.934 285.273 206.845Z" fill="#C14F4F"/>
<path d="M260.006 177.528C260.006 176.467 259.145 175.607 258.084 175.607C257.023 175.607 256.162 176.467 256.162 177.528C256.162 178.589 257.023 179.45 258.084 179.45C259.145 179.45 260.006 178.589 260.006 177.528Z" fill="#060305"/>
<path d="M285.296 168.62C285.296 167.559 284.435 166.698 283.374 166.698C282.313 166.698 281.452 167.559 281.452 168.62C281.452 169.681 282.313 170.542 283.374 170.542C284.437 170.542 285.296 169.681 285.296 168.62Z" fill="#060305"/>
<path d="M272.53 171.539C274.915 174.51 277.3 177.48 279.684 180.451C278.249 180.728 276.814 181.007 275.38 181.284" stroke="#060305" stroke-miterlimit="10" stroke-linecap="round" stroke-linejoin="round"/>
<path d="M267.345 185.754C268.295 187.577 271.087 188.072 272.606 186.685" stroke="#060305" stroke-miterlimit="10" stroke-linecap="round" stroke-linejoin="round"/>
<path d="M250.765 167.907C251.201 165.995 252.548 164.313 254.318 163.468C256.088 162.625 258.243 162.636 260.003 163.5" stroke="#060305" stroke-miterlimit="10" stroke-linecap="round" stroke-linejoin="round"/>
<path d="M228.845 194.489C231.67 194.489 234.497 194.489 237.322 194.489" stroke="#060305" stroke-miterlimit="10" stroke-linecap="round" stroke-linejoin="round"/>
<path d="M241.693 211.061C242.93 210.036 244.167 209.011 245.405 207.987" stroke="#060305" stroke-miterlimit="10" stroke-linecap="round" stroke-linejoin="round"/>
<path d="M356.084 208.223C345.578 201.08 332.55 197.009 319.851 197.416C299.502 198.068 279.15 198.722 258.8 199.374C258.552 201.882 260.255 204.448 262.472 205.645C264.69 206.842 267.271 207.125 269.779 207.385C280.579 208.506 291.378 209.627 302.178 210.748C297.651 211.143 293.156 211.47 288.629 211.865C286.717 212.032 284.957 213.597 284.607 215.481C284.256 217.367 285.167 219.425 286.799 220.433C291.077 223.075 297.177 223.85 301.921 225.522C299.014 225.836 296.49 229.428 296.845 232.331C297.199 235.233 300.189 237.54 303.086 237.145C300.81 238.302 299.612 241.643 300.288 244.107C300.963 246.571 303.504 248.38 306.053 248.214C317.431 255.074 328.875 261.792 340.253 268.652L382.488 235.421C375.191 225.018 366.591 215.367 356.084 208.223Z" fill="#C14F4F"/>
<path d="M313.281 210.461C306.385 210.562 299.49 210.664 292.594 210.767C290.919 210.791 289.109 211.197 287.511 211.695C285.38 212.355 283.929 214.719 284.302 216.917C284.618 218.777 286.054 220.293 287.718 221.182C289.381 222.071 291.268 222.433 293.121 222.785" stroke="#060305" stroke-miterlimit="10" stroke-linecap="round" stroke-linejoin="round"/>
<path d="M299.044 224.95C301.758 225.034 304.472 225.117 307.186 225.201" stroke="#060305" stroke-miterlimit="10" stroke-linecap="round" stroke-linejoin="round"/>
<path d="M300.395 237.824C302.43 237.717 304.465 237.61 306.501 237.503" stroke="#060305" stroke-miterlimit="10" stroke-linecap="round" stroke-linejoin="round"/>
<path d="M302.178 210.747C293.552 209.943 277.743 208.199 269.115 207.395C266.74 207.174 264.274 206.923 262.233 205.689C260.193 204.455 258.723 201.927 259.488 199.668C271.014 199.141 282.752 197.92 294.28 197.392" stroke="#060305" stroke-miterlimit="10" stroke-linecap="round" stroke-linejoin="round"/>
<path d="M421.177 285.735C404.847 260.446 373.822 220.397 373.822 220.397L327.503 265.91C336.762 287.665 346.022 309.422 355.282 331.177C361.322 345.367 376.498 354.444 391.918 354.134C407.338 353.824 421.968 343.507 427.889 329.266C433.809 315.026 429.543 298.691 421.177 285.735Z" fill="#F58220"/>
<path d="M327.135 266.065C335.358 285.972 343.583 305.879 351.806 325.785" stroke="#060305" stroke-miterlimit="10" stroke-linecap="round" stroke-linejoin="round"/>
<path d="M335.373 283.055C352.848 269.124 370.326 255.193 387.801 241.262" stroke="#060305" stroke-miterlimit="10" stroke-linecap="round" stroke-linejoin="round"/>
</g>
<mask id="mask2_54_1211" style="mask-type:luminance" maskUnits="userSpaceOnUse" x="-3" y="0" width="465" height="453">
<path d="M461.827 0.0362549H-2.87927V452.294H461.827V0.0362549Z" fill="white"/>
</mask>
<g mask="url(#mask2_54_1211)">
<path d="M156.638 263.447C149.903 270.194 140.134 273.788 130.633 273.016C121.132 272.244 112.266 266.956 106.708 259.212C96.6208 261.786 86.5317 264.361 76.444 266.935C74.2448 331.052 71.4823 394.24 69.2832 458.357L190.972 459.165C191.731 398.75 191.807 338.324 192.566 277.909C180.591 273.003 168.615 268.353 156.638 263.447Z" fill="#004185"/>
<path d="M92.5043 264.338C100.117 276.516 113.756 284.715 128.082 285.726C142.409 286.737 157.064 280.534 166.311 269.546" stroke="#060305" stroke-miterlimit="10" stroke-linecap="round" stroke-linejoin="round"/>
<path d="M168.183 178.789C172.957 177.238 176.061 171.733 174.917 166.844C173.773 161.956 168.945 159.505 163.977 160.235C164.647 154.31 160.387 148.223 154.59 146.822C148.794 145.421 142.738 149.278 140.628 154.856C139.309 151.282 135.865 148.586 132.079 148.167C128.292 147.748 123.624 149.705 121.556 152.906C118.152 149.02 112.354 147.43 107.442 149.035C102.53 150.641 99.8709 155.085 99.4176 160.231C94.5118 158.527 88.7337 159.638 84.8087 163.038C80.8837 166.438 78.8948 171.857 79.8842 176.955C76.6771 175.915 73.0423 177.254 70.6459 179.626C66.791 183.442 65.8973 189.907 68.5726 194.627C71.2479 199.347 77.2533 201.899 82.508 200.552C84.3368 207.557 86.1242 214.436 87.953 221.441C89.6002 227.748 91.3518 233.954 92.9418 240.276C89.6931 241.536 87.4111 243.98 87.2595 247.462C87.1065 250.943 88.921 254.386 91.7278 256.454C94.4932 258.49 98.1794 259.221 101.512 258.393C104.845 257.565 107.762 255.194 109.252 252.101L175.679 208.688C173.046 198.75 170.814 188.724 168.183 178.789Z" fill="#C14F4F"/>
<path d="M176.906 188.522C175.19 186.945 173.103 185.707 170.808 185.307C168.513 184.906 165.342 185.661 163.594 187.203C160.34 180.222 152.367 176.323 144.666 176.321C143.209 180.442 139.198 183.534 134.842 183.894C132.469 184.09 130.19 182.876 129.089 180.764C127.829 185.73 124.167 190.028 119.463 192.06C114.76 194.092 108.745 194.15 104.266 191.662C103.71 199.254 103.152 206.843 102.596 214.434C100.457 212.124 98.2522 209.813 96.1132 207.502C89.583 207.881 83.5175 212.591 81.5343 218.824C79.551 225.058 81.7802 232.406 86.8905 236.49C92.0023 240.572 99.6621 241.121 105.303 237.808C106.008 238.696 106.773 239.529 107.565 240.334C106.239 247.625 104.914 254.915 103.588 262.206C109.834 270.933 119.456 276.443 130.17 277.034C140.885 277.626 152.168 274.12 159.338 266.136C160.004 257.658 160.777 249.129 161.517 240.617C167.848 234.222 171.983 225.566 172.775 216.469C177.767 214.057 181.429 209.074 182.24 203.59C183.05 198.104 180.987 192.276 176.906 188.522Z" fill="#FFA996"/>
<path d="M87.6526 219.195C91.6248 219.403 95.5984 219.611 99.5705 219.818" stroke="#060305" stroke-miterlimit="10" stroke-linecap="round" stroke-linejoin="round"/>
<path d="M171.021 205.19C171.64 209.417 172.261 213.644 172.88 217.869" stroke="#060305" stroke-miterlimit="10" stroke-linecap="round" stroke-linejoin="round"/>
<path d="M171.517 197.429C172.594 195.494 173.669 193.561 174.746 191.627" stroke="#060305" stroke-miterlimit="10" stroke-linecap="round" stroke-linejoin="round"/>
<path d="M114.66 246.522C122.064 250.803 130.875 252.602 139.364 251.567C147.853 250.531 155.973 246.666 162.13 240.73" stroke="#060305" stroke-miterlimit="10" stroke-linecap="round" stroke-linejoin="round"/>
<path d="M128.229 177.957C129.711 182.46 129.242 187.569 126.965 191.727" stroke="#C14F4F" stroke-miterlimit="10" stroke-linecap="round" stroke-linejoin="round"/>
<path d="M124.384 211.915C124.384 210.671 123.376 209.663 122.132 209.663C120.888 209.663 119.88 210.671 119.88 211.915C119.88 213.159 120.888 214.167 122.132 214.167C123.376 214.167 124.384 213.159 124.384 211.915Z" fill="#060305"/>
<path d="M155.261 202.818C155.261 201.574 154.253 200.566 153.009 200.566C151.765 200.566 150.757 201.574 150.757 202.818C150.757 204.062 151.765 205.07 153.009 205.07C154.252 205.07 155.261 204.061 155.261 202.818Z" fill="#060305"/>
<path d="M137.9 204.627C139.477 208.253 141.054 211.881 142.631 215.507C141.394 215.684 139.881 216.13 138.644 216.308" stroke="#060305" stroke-miterlimit="10" stroke-linecap="round" stroke-linejoin="round"/>
<path d="M130.304 222.111C130.629 223.896 132.127 225.407 133.909 225.749C135.691 226.089 137.641 225.238 138.602 223.7" stroke="#060305" stroke-miterlimit="10" stroke-linecap="round" stroke-linejoin="round"/>
<path d="M131.174 201.142C123.715 203.819 116.257 206.494 108.8 209.171C109.269 214.153 112.757 219.009 117.575 220.357C122.394 221.705 127.952 219.808 130.939 215.794C133.927 211.779 133.85 205.371 131.174 201.142Z" stroke="#060305" stroke-width="1.13" stroke-miterlimit="10" stroke-linecap="round" stroke-linejoin="round"/>
<path d="M168.2 193.434C160.371 194.654 152.541 195.875 144.713 197.094C144.232 202.075 146.742 207.502 151.219 209.736C155.696 211.971 161.512 211.156 165.204 207.777C168.895 204.4 170.03 198.091 168.2 193.434Z" stroke="#060305" stroke-width="1.13" stroke-miterlimit="10" stroke-linecap="round" stroke-linejoin="round"/>
<path d="M130.989 200.992C131.823 198.383 133.943 196.219 136.535 195.333C139.128 194.448 142.129 194.861 144.384 196.415" stroke="#060305" stroke-width="1.13" stroke-miterlimit="10" stroke-linecap="round" stroke-linejoin="round"/>
<path d="M115.697 202.915C116.662 200.533 118.688 198.604 121.116 197.759C123.544 196.914 126.331 197.167 128.565 198.437" stroke="#060305" stroke-miterlimit="10" stroke-linecap="round" stroke-linejoin="round"/>
<path d="M143.796 189.894C147.191 188.813 150.584 187.733 153.978 186.652" stroke="#060305" stroke-miterlimit="10" stroke-linecap="round" stroke-linejoin="round"/>
<path d="M32.9274 275.644C15.8391 280.281 -0.774477 286.322 -14.9387 296.948C-14.2853 352.988 -14.8858 408.286 -14.2309 464.325L77.8552 460.346C78.1641 394.632 78.4715 328.917 78.7804 263.203C63.7081 267.295 47.9996 271.555 32.9274 275.644Z" fill="#060305"/>
<path d="M51.7945 270.707C49.6325 306.219 47.4691 341.73 45.3072 377.242C52.029 374.196 57.7399 370.736 64.4617 367.69C57.5325 378.471 50.6034 389.251 43.6729 400.032C47.8137 425.2 51.3941 451.127 55.535 476.294" stroke="white" stroke-miterlimit="10" stroke-linecap="round" stroke-linejoin="round"/>
<path d="M30.6168 277.453C24.3311 335.887 18.0455 394.322 11.7598 452.756" stroke="white" stroke-miterlimit="10" stroke-linecap="round" stroke-linejoin="round"/>
<path d="M295.977 392.99C289.188 375.861 283.926 357.761 274.886 341.704C262.228 319.216 241.838 300.665 218.869 288.905C208.268 283.477 197.518 278.534 186.917 273.106C181.625 342.407 176.333 411.707 171.041 481.008L284.149 495.648C301.758 465.171 308.944 425.713 295.977 392.99Z" fill="#060305"/>
<path d="M210.161 285.851C208.775 319.77 207.39 353.689 206.004 387.608C200.495 385.132 194.771 382.019 189.262 379.542C195.389 388.882 200.197 399.04 206.324 408.38C204.268 417.668 200.795 427.17 198.739 436.458" stroke="white" stroke-miterlimit="10" stroke-linecap="round" stroke-linejoin="round"/>
<path d="M182.25 460.356C191.165 443.47 205.208 429.335 222.036 420.312C230.12 415.977 239.064 414.706 248.201 415.532" stroke="white" stroke-miterlimit="10" stroke-linecap="round" stroke-linejoin="round"/>
<path d="M220.461 421.013C219.08 391.868 217.699 362.724 216.318 333.581C215.64 319.284 218.693 304.976 226.733 293.136" stroke="white" stroke-miterlimit="10" stroke-linecap="round" stroke-linejoin="round"/>
</g>
</svg>
