<svg width="821" height="497" viewBox="0 0 821 497" fill="none" xmlns="http://www.w3.org/2000/svg">
<mask id="mask0_54_1109" style="mask-type:luminance" maskUnits="userSpaceOnUse" x="201" y="23" width="617" height="575">
<path d="M817.426 23.3345H201.843V597.706H817.426V23.3345Z" fill="white"/>
</mask>
<g mask="url(#mask0_54_1109)">
<path d="M829.841 225.999C827.652 213.127 820.515 201.508 811.622 191.949C802.728 182.388 792.088 174.652 781.523 166.981C765.995 155.709 751.858 144.71 736.33 133.438C725.278 140.479 711.773 143.591 698.754 142.093C685.733 140.595 671.952 134.173 662.788 124.806C641.544 134.439 620.303 144.07 599.061 153.702C573.263 165.4 550.012 183.297 536.377 208.126C522.743 232.954 516.071 260.903 509.545 288.466L834.418 392.145C838.482 336.638 839.17 280.862 829.841 225.999Z" fill="white"/>
<path d="M687.735 153.348C678.53 208.059 669.323 262.77 660.117 317.48" stroke="#060305" stroke-miterlimit="10" stroke-linecap="round" stroke-linejoin="round"/>
<path d="M804.021 184.735C798.336 198.426 794.999 213.09 794.202 227.894" stroke="#060305" stroke-miterlimit="10" stroke-linecap="round" stroke-linejoin="round"/>
<path d="M581.102 164.894C582.917 188.692 578.007 212.965 567.085 234.185" stroke="#060305" stroke-miterlimit="10" stroke-linecap="round" stroke-linejoin="round"/>
<path d="M760.728 231.817C745.742 230.187 730.758 228.557 715.772 226.929C713.89 239.643 711.336 253.23 709.454 265.944C716.97 274.002 724.357 283.78 731.871 291.837" stroke="#060305" stroke-miterlimit="10" stroke-linecap="round" stroke-linejoin="round"/>
<path d="M715.573 236.713C729.081 239.102 742.587 241.491 756.095 243.88" stroke="#060305" stroke-miterlimit="10" stroke-linecap="round" stroke-linejoin="round"/>
<path d="M660.88 53.3178C662.73 54.0652 664.581 54.8143 666.432 55.5616C665.574 53.6048 664.717 51.6479 663.859 49.6927" stroke="#060305" stroke-miterlimit="10" stroke-linecap="round" stroke-linejoin="round"/>
<path d="M730.361 90.6853C729.882 85.4319 731.11 78.4236 730.631 73.1686C733.033 71.0365 735.314 68.6709 736.732 65.7882C738.15 62.9054 738.615 59.4204 737.349 56.4693C736.083 53.5165 732.847 51.4328 729.68 51.9817C729.54 47.7677 726.669 43.7705 722.719 42.2941C718.768 40.8177 713.57 41.3749 710.7 44.4645C697.379 40.2238 682.041 42.9647 671.014 51.5579C659.987 60.1511 653.579 74.353 654.435 88.3063L658.104 105.916C656.233 120.265 661.654 135.376 672.22 145.262C682.786 155.148 698.222 159.556 712.415 156.738C726.949 153.852 740.003 143.08 744.273 128.892C748.54 114.702 742.936 98.5211 730.361 90.6853Z" fill="#060305"/>
<path d="M664.178 81.7084C657.541 79.8183 649.824 82.8111 646.197 88.6818C642.571 94.5524 643.348 102.794 648.009 107.882C652.67 112.97 660.811 114.466 666.977 111.368L664.178 81.7084Z" fill="#C14F4F"/>
<path d="M652.355 89.7543C654.805 91.3058 657.254 92.859 659.705 94.4121" stroke="#060305" stroke-miterlimit="10" stroke-linecap="round" stroke-linejoin="round"/>
<path d="M732.735 110.488C728.759 111.515 724.333 112.96 720.36 113.988C717.754 106.922 710.709 101.724 703.19 101.317C695.671 100.91 687.747 104.775 684.392 111.517C681.299 109.937 677.726 108.012 674.633 106.43C673.84 98.9816 673.048 91.5328 672.255 84.084C679.759 79.9067 686.277 73.1886 690.056 65.4746C692.051 67.5766 694.955 69.4217 697.738 68.6109C700.521 67.8001 702.758 65.3511 703.312 62.5068C705.47 63.4777 708.442 63.7212 710.439 62.4534C712.435 61.1855 713.73 58.8766 713.772 56.5127C720.587 57.9708 727.266 62.3533 731.726 67.7084C736.185 73.0652 744.539 95.7885 732.735 110.488Z" fill="#C14F4F"/>
<path d="M727.587 89.9712C727.52 88.6717 726.412 87.6707 725.112 87.7375C723.813 87.8042 722.812 88.9119 722.879 90.2115C722.945 91.5111 724.053 92.512 725.353 92.4453C726.652 92.3785 727.653 91.2725 727.587 89.9712Z" fill="#060305"/>
<path d="M694.625 94.4154C694.558 93.1158 693.451 92.1149 692.151 92.1816C690.851 92.2483 689.851 93.3561 689.917 94.6556C689.984 95.9552 691.092 96.9562 692.391 96.8894C693.691 96.8227 694.69 95.715 694.625 94.4154Z" fill="#060305"/>
<path d="M682.876 85.0783C683.424 81.5633 686.364 78.5504 689.866 77.9148C693.367 77.2792 697.178 79.0642 698.928 82.1622" stroke="#060305" stroke-miterlimit="10" stroke-linecap="round" stroke-linejoin="round"/>
<path d="M708.4 87.9142C709.835 92.2633 711.271 96.6125 712.706 100.96C711.224 101.055 709.743 101.15 708.26 101.244" stroke="#060305" stroke-miterlimit="10" stroke-linecap="round" stroke-linejoin="round"/>
<path d="M716.249 78.4135C720.853 77.9831 725.46 77.5527 730.064 77.1223" stroke="#060305" stroke-miterlimit="10" stroke-linecap="round" stroke-linejoin="round"/>
<path d="M696.777 107.66C696.891 109.597 698.235 111.405 700.057 112.072C701.879 112.74 704.074 112.229 705.412 110.824" fill="#D9D9D9"/>
<path d="M713.168 54.9996C715.467 60.0043 713.491 66.5723 708.815 69.4801" stroke="#060305" stroke-miterlimit="10" stroke-linecap="round" stroke-linejoin="round"/>
</g>
<mask id="mask1_54_1109" style="mask-type:luminance" maskUnits="userSpaceOnUse" x="-1" y="0" width="617" height="575">
<path d="M615.582 6.10352e-05H-0.000183105V574.372H615.582V6.10352e-05Z" fill="white"/>
</mask>
<g mask="url(#mask1_54_1109)">
<path d="M618.727 241.137C592.926 240.246 568.115 239.884 542.312 238.993C537.449 247.476 528.786 253.682 519.19 255.557C509.593 257.432 498.475 254.308 490.776 248.279C471.476 259.509 452.176 270.74 432.874 281.971C416.067 291.752 403.139 305.48 392.154 321.525C381.168 337.572 372.762 355.212 364.404 372.771C357.556 387.158 350.706 401.547 343.858 415.934C355.159 465.136 366.142 513.912 377.443 563.114L622.392 562.185C623.316 455.717 622.737 347.537 618.727 241.137Z" fill="#F58220"/>
<path d="M497.026 383.017L548.071 312.545L545.023 365.687L572.986 353.546L530.201 423.733L526.689 372.475L497.026 383.017Z" fill="white"/>
<path d="M446.366 441.098C442.132 409.648 437.899 378.198 433.665 346.748" stroke="#060305" stroke-miterlimit="10" stroke-linecap="round" stroke-linejoin="round"/>
<path d="M426.063 356.926C429.286 359.829 432.509 362.731 435.732 365.634" stroke="#060305" stroke-miterlimit="10" stroke-linecap="round" stroke-linejoin="round"/>
<path d="M461.992 268.838C472.656 285.494 491.644 296.039 511.306 298.161C517.165 298.794 523.111 298.734 528.928 297.788C542.257 295.619 554.756 288.652 563.611 278.454C572.466 268.256 577.611 254.907 577.891 241.404" stroke="#060305" stroke-miterlimit="10" stroke-linecap="round" stroke-linejoin="round"/>
<path d="M630.485 439.936L445.693 442.339C421.722 486.603 409.112 536.959 409.395 587.297C482.851 591.826 557.068 593.53 630.643 591.85C630.64 541.358 630.49 490.428 630.485 439.936Z" fill="#8DC63F"/>
<path d="M442.789 451.169C503.158 449.455 563.526 447.742 623.895 446.029" stroke="#060305" stroke-miterlimit="10" stroke-linecap="round" stroke-linejoin="round"/>
<path d="M520.368 448.865C521.556 459.11 522.742 469.355 523.93 479.599C528.411 479.126 533.267 478.415 537.746 477.943C538.162 468.337 538.38 459.02 538.796 449.414" stroke="#060305" stroke-miterlimit="10" stroke-linecap="round" stroke-linejoin="round"/>
<path d="M473.392 450.657C465.272 471.922 446.539 488.825 424.553 494.72" stroke="#060305" stroke-miterlimit="10" stroke-linecap="round" stroke-linejoin="round"/>
<path d="M568.848 187.884C574.465 186.129 577.81 179.184 575.679 173.699C573.549 168.214 565.386 165.628 560.058 168.125C562.672 164.704 563.279 159.854 561.587 155.894C559.896 151.933 556.264 150.629 551.985 150.15C553.144 146.436 551.259 142.016 547.776 140.281C544.292 138.546 539.908 139.451 537.643 142.616C539.034 138.726 537.666 134.016 534.408 131.477C531.15 128.938 525.096 130.041 521.664 132.34C519.802 124.284 512.577 117.757 504.374 116.723C496.172 115.687 486.539 120.503 482.734 127.844C476.318 124.225 467.299 126.306 463.113 132.366C458.929 138.427 460.701 148.24 466.356 152.958C464.013 154.077 462.366 156.531 462.217 159.124C462.069 161.716 464.543 164.352 466.743 165.733C463.851 168.462 463.048 173.162 464.873 176.697C466.698 180.232 470.993 182.301 474.895 181.523L549.157 213.919C552.564 214.96 556.032 216.011 559.594 216.009C563.156 216.008 566.891 214.798 569.13 212.027C571.722 208.818 570.706 203.055 568.059 199.889C571.081 199.539 573.676 196.886 573.961 193.858C574.249 190.827 571.752 188.795 568.848 187.884Z" fill="#060305"/>
<path d="M565.284 157.427C565.514 162.602 562.568 167.788 558.007 170.242" stroke="#060305" stroke-miterlimit="10" stroke-linecap="round" stroke-linejoin="round"/>
<path d="M456.939 136.06C456.09 139.653 456.626 143.555 458.414 146.787C460.201 150.018 463.224 152.546 466.719 153.733" stroke="#060305" stroke-miterlimit="10" stroke-linecap="round" stroke-linejoin="round"/>
<path d="M545.969 243.971C544.179 237.523 542.684 231.167 540.894 224.721C547.637 225.597 554.749 222.367 558.526 216.713C562.303 211.06 562.567 203.252 559.175 197.358C555.784 191.464 548.905 187.764 542.119 188.185C541.745 190.25 541.228 192.54 540.854 194.606C537.288 192.819 533.224 190.123 531.879 186.368C530.533 182.613 530.691 178.342 532.311 174.697C526.938 175.643 520.67 173.954 516.655 170.261C512.639 166.567 510.474 160.954 510.969 155.52C497.46 153.446 482.135 159.637 475.409 171.537C470.058 181.001 466.068 192.734 468.33 203.369C470.594 214.002 477.646 223.522 487.16 228.782C487.56 237.29 487.56 246.213 487.962 254.721C482.896 257.758 477.434 260.387 472.367 263.423C482.459 281.809 506.415 291.823 526.921 287.431C547.429 283.038 563.955 264.192 565.63 243.285L545.969 243.971Z" fill="#C14F4F"/>
<path d="M486.321 229.045C497.633 235.608 512.449 235.631 523.785 229.109" stroke="#060305" stroke-miterlimit="10" stroke-linecap="round" stroke-linejoin="round"/>
<path d="M542.688 202.208C546.713 202.139 550.737 202.071 554.763 202.003" stroke="#060305" stroke-miterlimit="10" stroke-linecap="round" stroke-linejoin="round"/>
<path d="M537.75 224.647C539.218 224.894 540.686 225.141 542.154 225.39" stroke="#060305" stroke-miterlimit="10" stroke-linecap="round" stroke-linejoin="round"/>
<path d="M520.902 189.426C520.902 188.138 519.858 187.094 518.57 187.094C517.282 187.094 516.237 188.138 516.237 189.426C516.237 190.714 517.282 191.758 518.57 191.758C519.858 191.758 520.902 190.714 520.902 189.426Z" fill="#060305"/>
<path d="M487.003 181.034C487.003 179.746 485.959 178.702 484.671 178.702C483.383 178.702 482.338 179.746 482.338 181.034C482.338 182.322 483.383 183.367 484.671 183.367C485.959 183.367 487.003 182.322 487.003 181.034Z" fill="#060305"/>
<path d="M499.643 184.066C497.848 188.266 496.055 192.467 494.26 196.666C495.95 196.668 497.64 196.669 499.33 196.671" stroke="#060305" stroke-miterlimit="10" stroke-linecap="round" stroke-linejoin="round"/>
<path d="M510.859 201.636L502.371 202.864C504.086 208.981 511.733 208.157 510.859 201.636Z" fill="white"/>
<path d="M480.25 166.335C482.247 164.427 485.3 163.703 487.94 164.512C490.581 165.321 492.705 167.63 493.291 170.329" stroke="#060305" stroke-miterlimit="10" stroke-linecap="round" stroke-linejoin="round"/>
<path d="M512.514 175.491C515.807 176.313 519.1 177.136 522.393 177.957" stroke="#060305" stroke-miterlimit="10" stroke-linecap="round" stroke-linejoin="round"/>
<path d="M510.901 153.068C508.223 157.39 507.776 163.016 509.736 167.707" stroke="#060305" stroke-miterlimit="10" stroke-linecap="round" stroke-linejoin="round"/>
</g>
<mask id="mask2_54_1109" style="mask-type:luminance" maskUnits="userSpaceOnUse" x="334" y="0" width="617" height="575">
<path d="M950.432 6.10352e-05H334.85V574.372H950.432V6.10352e-05Z" fill="white"/>
</mask>
<g mask="url(#mask2_54_1109)">
<path d="M614.528 192.669C624.072 191.413 634.047 193.753 642.035 199.125C650.022 204.497 655.953 212.852 658.39 222.164" stroke="#060305" stroke-miterlimit="10" stroke-linecap="round" stroke-linejoin="round"/>
<path d="M679.083 287.396C684.77 284.876 691.65 285.234 697.044 288.332C702.437 291.43 706.213 297.192 706.902 303.375C710.213 302.946 714.404 304.586 716.626 307.077C718.85 309.567 719.747 313.179 718.946 316.421" stroke="#060305" stroke-miterlimit="10" stroke-linecap="round" stroke-linejoin="round"/>
<path d="M594.076 302.474C587.264 302.896 580.719 306.513 576.736 312.053C572.752 317.593 571.409 324.95 573.177 331.54" stroke="#060305" stroke-miterlimit="10" stroke-linecap="round" stroke-linejoin="round"/>
<path d="M725.925 328.048C723.366 324.52 719.098 322.89 714.831 323.783C717.003 319.846 716.039 314.447 712.639 311.504C709.239 308.561 703.532 309.054 699.947 311.769C703.622 304.963 701.885 295.694 695.998 290.679C690.109 285.663 680.683 285.424 674.547 290.134C674.457 288.504 674.866 286.053 674.776 284.423C683.751 274.539 687.318 260.025 683.95 247.108C680.581 234.19 669.406 223.644 656.749 219.401C651.754 207.999 640.952 199.329 628.739 196.922C616.525 194.514 603.017 198.398 594.071 207.053C589.214 201.594 579.737 201.206 574.45 206.247C569.163 211.289 569.681 222.372 574.901 227.484C571.187 230.774 569.887 236.409 571.487 241.105C573.087 245.801 577.361 249.398 582.198 250.503C587.035 251.605 592.466 250.905 596.451 247.95C593.402 265.887 593.957 284.568 597.12 302.486C589.781 302.564 582.643 306.928 579.226 313.424C575.81 319.921 576.26 328.275 580.354 334.366C573.436 334.838 566.985 336.043 562.087 340.951C557.189 345.859 554.147 352.577 553.694 359.497C553.317 365.209 555.11 371.622 560.061 374.493L726.58 340.4C728.752 336.62 728.484 331.577 725.925 328.048Z" fill="#060305"/>
<path d="M484.963 470.29C476.608 504.053 466.944 544.436 458.59 578.2L559.529 582.07C562.599 554.231 565.73 525.044 568.798 497.206C541.427 487.984 512.337 479.509 484.963 470.29Z" fill="#D87172"/>
<path d="M850.265 426.742C830.172 380.964 786.015 349.142 737.684 336.355C710.665 329.206 682.515 323.679 655.496 316.529C651.303 325.142 642.95 331.61 633.562 333.512C624.173 335.414 613.991 331.849 606.776 325.546C586.929 342.377 567.081 359.206 547.232 376.037C511.14 406.643 483.296 446.269 466.454 490.493C486.985 492.397 506.737 494.127 527.267 496.03C529.22 507.777 537.466 518.377 548.776 522.105C549.028 536.873 549.405 565.2 549.655 579.967L806.763 582.518C810.922 540.801 813.276 488.068 811.833 446.168C824.452 439.89 837.648 433.02 850.265 426.742Z" fill="#004185"/>
<path d="M581.412 350.48C596.203 367.313 620.362 375.317 642.276 370.644C664.191 365.973 682.987 348.812 689.627 327.411" stroke="#060305" stroke-miterlimit="10" stroke-linecap="round" stroke-linejoin="round"/>
<path d="M526.541 497.05C525.75 482.017 528.86 466.794 535.483 453.276" stroke="#060305" stroke-miterlimit="10" stroke-linecap="round" stroke-linejoin="round"/>
<path d="M525.937 454.978C527.725 457.642 529.516 460.306 531.304 462.97" stroke="#060305" stroke-miterlimit="10" stroke-linecap="round" stroke-linejoin="round"/>
<path d="M741.458 398.434C743.073 419.139 744.689 439.843 746.304 460.548" stroke="#060305" stroke-miterlimit="10" stroke-linecap="round" stroke-linejoin="round"/>
<path d="M472.226 480.188C490.011 482.431 507.796 484.673 525.58 486.915" stroke="#060305" stroke-miterlimit="10" stroke-linecap="round" stroke-linejoin="round"/>
<path d="M745.74 445.385C777.452 433.868 809.164 422.352 840.874 410.834" stroke="#060305" stroke-miterlimit="10" stroke-linecap="round" stroke-linejoin="round"/>
<path d="M859.596 483.393C854.019 464.043 848.103 445.352 842.526 426.002C811.945 436.708 781.364 447.417 750.783 458.124C755.606 480.817 760.641 502.947 765.464 525.64C769.336 543.869 754.932 560.605 749.377 578.394L857.707 592.485C866.195 557.023 869.692 518.43 859.596 483.393Z" fill="#D87172"/>
<path d="M676.175 324.416C671.147 322.757 666.616 322.104 661.588 320.443C661.316 312.835 660.659 305.794 660.387 298.185C667.577 300.389 676.014 297.612 680.491 291.572C684.969 285.529 685.167 276.651 680.965 270.413C676.763 264.177 668.458 261.026 661.178 262.908C655.432 257.359 651.494 248.969 651.705 240.985C643.923 234.047 632.197 229.799 621.772 229.941C611.347 230.083 601.029 234.257 593.438 241.406C583.542 250.724 579.462 265.347 580.649 278.886C581.852 292.589 588.974 305.06 601.132 311.494C602.292 317.747 604.215 324.775 605.375 331.026C601.524 334.786 598.004 338.375 594.154 342.135C605.471 355.466 623.957 362.665 640.954 358.551C657.951 354.438 672.207 341.446 676.175 324.416Z" fill="#D87172"/>
<path d="M662.629 276.651C666.883 276.077 671.137 275.504 675.39 274.931" stroke="#060305" stroke-miterlimit="10" stroke-linecap="round" stroke-linejoin="round"/>
<path d="M600.965 311.786C612.416 319.378 628.26 319.715 640.023 312.615" stroke="#060305" stroke-width="0.9091" stroke-miterlimit="10" stroke-linecap="round" stroke-linejoin="round"/>
<path d="M657.693 297.671C659.428 298.144 661.163 298.617 662.896 299.09" stroke="#060305" stroke-miterlimit="10" stroke-linecap="round" stroke-linejoin="round"/>
<path d="M599.889 256.956C601.318 256.956 602.477 255.797 602.477 254.368C602.477 252.939 601.318 251.781 599.889 251.781C598.46 251.781 597.302 252.939 597.302 254.368C597.302 255.797 598.46 256.956 599.889 256.956Z" fill="#060305"/>
<path d="M640.023 262.476C640.023 261.046 638.863 259.888 637.435 259.888C636.006 259.888 634.848 261.046 634.848 262.476C634.848 263.905 636.007 265.063 637.435 265.063C638.865 265.065 640.023 263.905 640.023 262.476Z" fill="#060305"/>
<path d="M616.438 280.349C617.084 282.174 619.214 283.329 621.096 282.875C622.978 282.421 624.346 280.419 624.087 278.503" stroke="#060305" stroke-miterlimit="10" stroke-linecap="round" stroke-linejoin="round"/>
<path d="M615.453 258.656C614.061 263.402 612.67 268.146 611.279 272.892C612.745 273.144 614.211 273.396 615.679 273.65" stroke="#060305" stroke-miterlimit="10" stroke-linecap="round" stroke-linejoin="round"/>
<path d="M649.263 267.28C649.263 260.749 643.968 255.452 637.435 255.452C630.904 255.452 625.607 260.747 625.607 267.28C625.607 273.813 630.902 279.108 637.435 279.108C643.966 279.108 649.263 273.813 649.263 267.28Z" stroke="#060305" stroke-miterlimit="10" stroke-linecap="round" stroke-linejoin="round"/>
<path d="M611.342 258.656C611.342 252.124 606.047 246.828 599.514 246.828C592.981 246.828 587.686 252.123 587.686 258.656C587.686 265.188 592.981 270.483 599.514 270.483C606.047 270.483 611.342 265.188 611.342 258.656Z" stroke="#060305" stroke-miterlimit="10" stroke-linecap="round" stroke-linejoin="round"/>
<path d="M611.854 255.422C614.188 252.955 617.928 251.917 621.2 252.83C624.471 253.743 627.132 256.567 627.851 259.887" stroke="#060305" stroke-miterlimit="10" stroke-linecap="round" stroke-linejoin="round"/>
<path d="M597.782 237.725C602.317 235.246 608.352 235.87 612.283 239.225" stroke="#060305" stroke-miterlimit="10" stroke-linecap="round" stroke-linejoin="round"/>
<path d="M633.945 244.585C638.359 243.024 643.72 244.781 646.352 248.653" stroke="#060305" stroke-miterlimit="10" stroke-linecap="round" stroke-linejoin="round"/>
</g>
</svg>
